<?xml version="1.0" standalone="no"?>
<!DOCTYPE svg PUBLIC "-//W3C//DTD SVG 20010904//EN"
 "http://www.w3.org/TR/2001/REC-SVG-20010904/DTD/svg10.dtd">
<svg version="1.0" xmlns="http://www.w3.org/2000/svg"
 width="455.000000pt" height="310.000000pt" viewBox="0 0 455.000000 310.000000"
 preserveAspectRatio="xMidYMid meet">
<metadata>
Created by potrace 1.13, written by Peter Selinger 2001-2015
</metadata>
<g transform="translate(0.000000,310.000000) scale(0.100000,-0.100000)"
fill="#000000" stroke="none">
<path d="M1965 3065 c-633 -63 -1163 -295 -1516 -662 -416 -434 -473 -997
-147 -1470 145 -210 402 -425 674 -561 394 -197 793 -287 1279 -287 412 0 756
64 1095 203 451 185 781 465 951 807 159 322 157 662 -6 985 -165 326 -504
611 -945 793 -403 166 -922 238 -1385 192z m566 -50 c824 -79 1487 -460 1740
-999 225 -481 52 -1029 -441 -1400 -129 -97 -199 -141 -210 -130 -5 5 -28 56
-52 114 -38 94 -43 115 -46 202 -3 78 0 104 15 140 11 23 25 66 32 93 7 28 17
67 23 87 21 71 -23 292 -82 413 -16 33 -52 86 -80 117 -43 48 -58 77 -90 167
-21 60 -50 132 -64 160 -22 43 -31 51 -54 51 -21 0 -37 -10 -60 -39 -18 -22
-32 -44 -32 -50 0 -5 -16 -22 -35 -37 -19 -14 -35 -31 -35 -36 0 -5 -9 -29
-20 -53 -11 -25 -23 -66 -26 -92 -3 -27 -14 -78 -26 -115 l-20 -66 -46 56
c-25 31 -57 68 -71 82 -40 39 -162 193 -204 258 -25 38 -32 43 -60 40 -29 -3
-33 -7 -40 -43 -4 -22 -15 -69 -24 -105 -31 -122 -27 -236 12 -325 27 -62 55
-163 69 -250 8 -49 19 -103 25 -118 6 -16 11 -62 11 -103 0 -94 -29 -183 -81
-245 -22 -26 -39 -52 -39 -57 0 -6 -20 -28 -45 -49 -33 -27 -45 -44 -45 -65 0
-67 71 -47 132 37 18 25 54 71 81 102 80 95 99 194 101 523 0 154 -3 236 -11
259 l-13 34 30 -28 c17 -16 30 -33 30 -38 0 -5 19 -32 43 -60 54 -65 97 -129
97 -145 0 -6 9 -16 20 -22 32 -17 67 7 61 43 -1 4 8 25 19 47 11 21 20 50 20
62 0 21 16 50 91 165 l21 33 24 -35 c13 -20 24 -39 24 -43 0 -4 16 -31 35 -59
19 -29 35 -56 35 -60 0 -4 13 -33 29 -64 17 -30 35 -76 42 -102 6 -26 17 -52
25 -58 8 -6 14 -17 14 -23 0 -6 8 -27 19 -46 27 -52 33 -101 32 -253 -1 -132
1 -144 33 -240 18 -56 45 -127 59 -158 l26 -57 -109 -51 c-730 -342 -1693
-332 -2415 24 -183 91 -191 96 -175 125 8 15 10 48 6 99 -3 42 -8 153 -11 246
-6 163 -5 173 19 239 20 56 33 76 74 110 27 22 94 83 148 133 55 51 140 122
189 159 147 108 284 237 339 319 91 135 70 266 -65 406 -35 36 -77 74 -94 84
-16 10 -62 42 -100 71 -91 69 -211 127 -302 148 -78 17 -273 21 -335 7 -21 -5
-38 -7 -38 -5 0 10 236 157 315 197 285 142 603 233 930 266 61 6 124 13 140
15 81 9 328 4 466 -9z m-1933 -617 c-8 -91 -11 -418 -7 -713 2 -151 -12 -365
-26 -398 -4 -10 2 -57 14 -110 11 -51 29 -135 39 -187 11 -52 26 -115 35 -140
8 -25 23 -79 32 -120 9 -41 26 -90 36 -108 33 -57 22 -55 -61 9 -239 185 -419
442 -487 697 -23 85 -26 117 -26 252 0 135 3 167 26 252 53 200 158 377 325
550 58 59 105 108 106 108 1 0 -2 -42 -6 -92z m312 3 c36 -7 87 -23 113 -36
27 -14 54 -25 61 -25 16 0 100 -88 122 -129 27 -49 38 -67 50 -82 36 -47 42
-192 9 -229 -8 -9 -15 -21 -15 -26 0 -5 -29 -53 -64 -107 -36 -54 -73 -116
-82 -137 -10 -22 -24 -40 -31 -40 -16 0 -60 -44 -116 -113 -21 -26 -42 -45
-46 -42 -9 5 -35 134 -50 245 -5 41 -26 136 -45 210 -28 103 -36 155 -36 218
0 78 -10 129 -46 225 -8 20 -14 51 -14 67 0 26 3 29 38 32 20 2 48 -2 62 -8
14 -7 54 -17 90 -23z m572 -204 c103 -99 127 -232 60 -327 -17 -25 -59 -70
-94 -100 -34 -30 -80 -72 -101 -92 -22 -21 -43 -38 -46 -38 -4 0 -25 -16 -47
-36 -21 -19 -48 -40 -59 -46 -19 -10 -19 -10 -6 8 8 10 76 80 151 154 172 171
200 208 200 269 0 66 -14 107 -52 151 -18 21 -49 60 -68 87 -31 43 -32 46 -9
32 14 -9 46 -37 71 -62z m-752 -401 c0 -12 11 -75 25 -141 54 -253 64 -423 31
-509 -17 -45 -20 -48 -32 -31 -8 10 -14 36 -14 56 0 21 -9 58 -20 84 -11 27
-20 69 -20 99 0 31 -6 61 -16 75 -15 20 -15 32 -4 95 12 72 9 261 -6 336 l-7
35 32 -39 c17 -21 31 -48 31 -60z m2525 12 c30 -100 57 -153 97 -193 55 -54
79 -93 104 -166 13 -39 24 -75 24 -80 0 -21 -61 24 -94 69 -20 26 -46 60 -58
75 -22 26 -50 71 -114 177 -15 25 -40 58 -56 74 -15 15 -28 34 -28 41 0 13 78
84 92 85 4 0 19 -37 33 -82z"/>
<path d="M2605 2429 c-27 -5 -72 -14 -100 -19 -224 -41 -353 -49 -422 -26 -31
11 -81 16 -149 16 -56 0 -133 7 -171 16 -51 11 -86 13 -129 7 -57 -8 -59 -9
-67 -43 -15 -60 2 -84 90 -127 74 -36 84 -38 187 -41 l109 -4 -6 -190 c-6
-195 -5 -206 34 -363 12 -49 26 -115 30 -146 5 -31 13 -68 19 -84 7 -20 7 -31
-1 -41 -6 -8 -9 -26 -6 -40 2 -14 -2 -39 -10 -56 -12 -23 -14 -50 -8 -126 6
-95 6 -99 -34 -210 -26 -75 -53 -132 -81 -168 l-41 -54 -62 0 c-40 1 -76 7
-102 20 -22 11 -50 19 -61 20 -12 0 -48 21 -80 46 -33 25 -71 51 -86 56 -15 5
-38 26 -50 46 -12 21 -30 43 -40 50 -10 7 -18 18 -18 24 0 6 -11 26 -25 44
-14 18 -25 39 -25 48 0 8 -10 27 -23 43 -12 15 -28 40 -35 56 -11 27 -33 34
-66 21 -19 -7 -21 -78 -5 -159 5 -27 13 -87 18 -132 14 -123 36 -188 82 -237
41 -46 122 -88 202 -105 26 -6 67 -15 92 -21 25 -6 122 -10 215 -10 190 0 236
10 307 69 21 17 45 31 55 31 9 0 19 4 22 9 4 5 26 19 50 31 64 30 112 88 132
157 24 83 14 269 -20 373 -14 41 -35 109 -46 150 -12 41 -46 129 -75 195 -71
161 -80 204 -71 370 7 139 22 284 31 293 3 3 58 9 122 13 312 21 406 32 431
52 19 15 14 74 -10 117 -24 42 -26 43 -103 29z m-456 -1100 c1 35 9 22 27 -44
8 -33 19 -65 25 -72 7 -8 8 -64 4 -170 -6 -130 -11 -163 -26 -185 -11 -14 -19
-30 -19 -36 0 -16 -78 -86 -102 -93 -13 -3 -40 -4 -60 -1 l-37 4 34 51 c19 29
35 59 35 67 0 8 16 60 36 115 34 96 35 104 28 192 -6 83 -4 96 17 140 20 42
25 46 31 29 5 -19 6 -19 7 3z m-788 -506 c41 -70 75 -103 140 -134 108 -51
125 -60 99 -54 -14 3 -50 10 -81 14 -73 12 -159 52 -191 89 -27 32 -53 137
-42 167 6 16 9 15 26 -6 10 -13 32 -48 49 -76z"/>
<path d="M3315 2358 c-44 -16 -65 -38 -65 -69 0 -41 28 -53 66 -28 16 10 41
19 57 19 23 0 27 -4 27 -26 0 -28 -51 -94 -82 -106 -25 -10 -24 -64 1 -78 11
-5 55 -10 98 -10 43 0 96 -5 117 -10 63 -14 101 19 68 60 -11 13 -38 24 -79
32 -60 11 -61 12 -47 32 17 24 18 100 3 145 -7 19 -22 36 -36 42 -31 12 -90
10 -128 -3z"/>
</g>
</svg>
